<svg width="152" height="163" viewBox="0 0 152 163" fill="none" xmlns="http://www.w3.org/2000/svg">
<path d="M103.222 93.8764C103.499 93.9239 103.761 93.7579 103.846 93.4933C103.932 93.2286 103.816 92.9409 103.563 92.8179C94.0079 87.8471 88.7133 84.4585 86.2537 79.6592C83.7931 74.8596 84.1324 68.5836 85.6743 57.9235C85.7218 57.6467 85.5558 57.3846 85.2912 57.2993C85.0266 57.2141 84.7388 57.33 84.6158 57.5825C79.645 67.1378 76.2564 72.4325 71.4571 74.8921C66.6575 77.3527 60.3815 77.0134 49.7214 75.4715C49.4569 75.428 49.1948 75.5939 49.0972 75.8546C49.012 76.1192 49.1156 76.403 49.3681 76.5261C67.7051 86.496 70.4223 89.6808 67.2696 111.426C67.2221 111.703 67.388 111.965 67.6527 112.051C67.9173 112.136 68.205 112.02 68.3281 111.767C73.2989 102.212 76.6875 96.9175 81.4868 94.4578C86.2818 92.0084 92.5744 92.3385 103.222 93.8775L103.222 93.8764ZM68.8227 108.419C71.1658 89.9198 68.0192 85.6087 52.6053 77.0125C70.7909 79.3798 75.4613 77.0164 84.13 60.945C81.7868 79.0134 84.179 83.6791 100.217 92.3244C82.1368 89.9764 77.4668 92.3806 68.8227 108.419Z" fill="#9FC1C3" fill-opacity="0.46"/>
<path d="M74.2448 51.515C74.285 51.7365 74.4415 51.8986 74.6305 51.9595C74.7184 51.9878 74.8022 51.9866 74.89 51.9732C75.1994 51.9195 75.4058 51.6251 75.3605 51.332L74.25 44.5889C74.1964 44.2795 73.9019 44.073 73.5965 44.1144C73.2871 44.168 73.0806 44.4625 73.1259 44.7556L74.2448 51.515Z" fill="#9FC1C3" fill-opacity="0.46"/>
<path d="M72.0422 38.0187C72.0824 38.2403 72.2389 38.4023 72.4279 38.4632C72.5158 38.4915 72.5996 38.4904 72.6874 38.477C72.9968 38.4233 73.2032 38.1288 73.1619 37.8234L72.1847 31.8325C72.131 31.5231 71.8365 31.3167 71.5311 31.358C71.2217 31.4117 71.0153 31.7061 71.0566 32.0116L72.0422 38.0187Z" fill="#9FC1C3" fill-opacity="0.46"/>
<path d="M86.5131 49.2766C86.8156 49.3741 87.1317 49.212 87.2291 48.9096L96.8208 19.1378C96.9059 18.8314 96.7429 18.515 96.4537 18.4218C96.1636 18.3283 95.8351 18.4864 95.7377 18.7889L86.1424 48.5719C86.0481 48.8617 86.2107 49.1791 86.5132 49.2765L86.5131 49.2766Z" fill="#9FC1C3" fill-opacity="0.46"/>
<path d="M93.8339 58.8544C93.9056 58.9328 93.9902 58.9746 94.0781 59.003C94.2671 59.0639 94.4887 59.0236 94.6333 58.8761L108.826 45.6133C109.05 45.3934 109.067 45.0369 108.847 44.8136C108.627 44.5894 108.27 44.5726 108.047 44.7927L93.8545 58.0556C93.6357 58.2617 93.618 58.6179 93.8339 58.8544L93.8339 58.8544Z" fill="#9FC1C3" fill-opacity="0.46"/>
<path d="M103.087 75.4269C103.144 75.5984 103.283 75.7267 103.446 75.7794C103.56 75.8159 103.685 75.8146 103.794 75.7797L125.821 68.3382C126.117 68.2386 126.277 67.9148 126.178 67.6187C126.078 67.3226 125.754 67.162 125.458 67.2617L103.432 74.7034C103.148 74.807 102.988 75.1311 103.087 75.4269L103.087 75.4269Z" fill="#9FC1C3" fill-opacity="0.46"/>
<path d="M107.932 87.3396C107.9 87.6081 108.071 87.857 108.323 87.9383C108.361 87.9504 108.399 87.9626 108.44 87.9625L132.407 90.5641C132.718 90.5943 132.996 90.3782 133.026 90.0677C133.056 89.7572 132.84 89.4789 132.53 89.4488L108.563 86.8472C108.244 86.8007 107.962 87.0291 107.932 87.3396L107.932 87.3396Z" fill="#9FC1C3" fill-opacity="0.46"/>
<path d="M111.085 101.085C110.976 101.384 111.125 101.696 111.424 101.806L128.06 107.945L128.086 107.954C128.376 108.047 128.688 107.897 128.794 107.611C128.904 107.313 128.754 107.001 128.456 106.89L111.819 100.751C111.534 100.644 111.196 100.787 111.085 101.085Z" fill="#9FC1C3" fill-opacity="0.46"/>
<path d="M105.581 125.118L93.431 107.946C93.2488 107.693 92.8921 107.634 92.6384 107.816C92.3846 107.998 92.326 108.355 92.5082 108.609L104.658 125.781C104.735 125.889 104.836 125.963 104.949 126C105.113 126.053 105.302 126.03 105.447 125.923C105.704 125.729 105.764 125.372 105.581 125.118L105.581 125.118Z" fill="#9FC1C3" fill-opacity="0.46"/>
<path d="M83.1252 113.166C83.0093 112.878 82.6812 112.731 82.3935 112.847C82.1058 112.963 81.9584 113.291 82.0743 113.579L94.8 145.545C94.8606 145.703 94.9998 145.831 95.151 145.88C95.2767 145.92 95.4023 145.919 95.5317 145.864C95.8194 145.748 95.9669 145.42 95.8509 145.132L83.1252 113.166Z" fill="#9FC1C3" fill-opacity="0.46"/>
<path d="M74.4516 118.622C74.3856 118.309 74.086 118.115 73.7858 118.185C73.4848 118.255 73.2789 118.551 73.3491 118.851L76.0991 131.993C76.1432 132.203 76.2868 132.36 76.4758 132.42C76.5637 132.449 76.6607 132.452 76.7648 132.43C77.0658 132.36 77.2717 132.065 77.2015 131.764L74.4516 118.622Z" fill="#9FC1C3" fill-opacity="0.46"/>
<path d="M63.1297 119.829C62.8273 119.731 62.5112 119.893 62.4137 120.196L54.8894 143.551C54.7919 143.853 54.954 144.169 55.2564 144.267C55.5589 144.364 55.875 144.202 55.9725 143.9L63.4968 120.545C63.5943 120.242 63.4325 119.925 63.13 119.828L63.1297 119.829Z" fill="#9FC1C3" fill-opacity="0.46"/>
<path d="M58.174 109.386C57.9876 109.145 57.6272 109.098 57.3855 109.285L34.4616 127.023C34.221 127.209 34.1738 127.57 34.3608 127.811C34.4284 127.903 34.5338 127.964 34.635 127.997C34.8117 128.054 34.9996 128.031 35.1533 127.9L58.0737 110.173C58.3268 109.99 58.3698 109.643 58.1744 109.385L58.174 109.386Z" fill="#9FC1C3" fill-opacity="0.46"/>
<path d="M52.6688 96.5941C52.5692 96.298 52.2454 96.1374 51.9493 96.2371L20.4054 106.789C20.1094 106.889 19.9488 107.213 20.0484 107.509C20.1048 107.68 20.244 107.808 20.4075 107.861C20.5209 107.898 20.6465 107.896 20.7548 107.861L52.2986 97.3094C52.6079 97.214 52.7676 96.8899 52.6679 96.5938L52.6688 96.5941Z" fill="#9FC1C3" fill-opacity="0.46"/>
<path d="M40.4731 79.824C40.5164 79.5178 40.3035 79.2269 39.9981 79.1839L24.8911 76.8903C24.5848 76.8469 24.294 77.0599 24.2509 77.3653C24.2035 77.6421 24.3817 77.9081 24.6341 77.9894C24.6595 77.9976 24.6973 78.0098 24.7259 78.0054L39.8329 80.299C40.1392 80.3424 40.4266 80.1429 40.4731 79.824L40.4731 79.824Z" fill="#9FC1C3" fill-opacity="0.46"/>
<path d="M47.2444 68.26C47.4712 68.333 47.7172 68.259 47.8659 68.0565C48.0563 67.8122 48.0067 67.4478 47.7449 67.2665L25.9721 50.9445C25.7277 50.7542 25.3634 50.8037 25.182 51.0655C24.9917 51.3099 25.0412 51.6742 25.303 51.8556L47.0871 68.1812C47.1341 68.2099 47.1932 68.2435 47.2433 68.2596L47.2444 68.26Z" fill="#9FC1C3" fill-opacity="0.46"/>
<path d="M59.0546 63.857C59.1274 63.9775 59.2367 64.069 59.3624 64.1095C59.5136 64.1582 59.6852 64.1436 59.8268 64.0505C60.1012 63.8885 60.1862 63.5403 60.0203 63.2782L50.45 47.2991C50.2881 47.0247 49.9399 46.9397 49.6778 47.1056C49.4034 47.2676 49.3184 47.6158 49.4843 47.8779L59.0546 63.857Z" fill="#9FC1C3" fill-opacity="0.46"/>
<path d="M68.066 60.8078C68.1266 60.966 68.2574 61.0781 68.4086 61.1268C68.5343 61.1673 68.6731 61.1703 68.8017 61.1146C69.0894 60.9987 69.2245 60.6667 69.0954 60.3747L56.5089 30.5677C56.3929 30.28 56.0609 30.1449 55.7689 30.274C55.4812 30.39 55.3461 30.722 55.4752 31.014L68.066 60.8078Z" fill="#9FC1C3" fill-opacity="0.46"/>
<path d="M33.5857 91.6559L26.0744 92.6024C25.7692 92.6428 25.5418 92.918 25.5783 93.2354C25.6014 93.4651 25.7671 93.6436 25.9684 93.7085C26.044 93.7328 26.1236 93.7449 26.2114 93.7314L33.7227 92.7849C34.0278 92.7445 34.2552 92.4694 34.2187 92.1519C34.1699 91.8305 33.8908 91.6154 33.5857 91.6559L33.5857 91.6559Z" fill="#9FC1C3" fill-opacity="0.46"/>
<path d="M40.6408 91.2163C40.6638 91.446 40.8295 91.6245 41.0308 91.6894C41.1064 91.7138 41.186 91.7258 41.2738 91.7124L45.992 91.1461C46.2971 91.1056 46.5245 90.8305 46.4881 90.513C46.4476 90.2079 46.1725 89.9805 45.855 90.017L41.1368 90.5833C40.8274 90.6369 40.6003 90.9112 40.6408 91.2163L40.6408 91.2163Z" fill="#9FC1C3" fill-opacity="0.46"/>
<path d="M123.54 122.835L119.43 118.966C119.206 118.755 118.842 118.763 118.631 118.987C118.42 119.211 118.428 119.575 118.652 119.786L122.761 123.656C122.824 123.718 122.896 123.755 122.972 123.779C123.173 123.844 123.399 123.791 123.561 123.635C123.772 123.411 123.759 123.059 123.54 122.835L123.54 122.835Z" fill="#9FC1C3" fill-opacity="0.46"/>
<path d="M112.65 112.592L104.571 104.981C104.347 104.77 103.982 104.778 103.771 105.002C103.56 105.226 103.568 105.59 103.792 105.801L111.871 113.412C111.934 113.475 112.006 113.511 112.082 113.536C112.283 113.601 112.509 113.548 112.671 113.392C112.886 113.155 112.874 112.804 112.65 112.592L112.65 112.592Z" fill="#9FC1C3" fill-opacity="0.46"/>
<path d="M122.555 51.749C122.707 51.7977 122.891 51.787 123.036 51.6816L126.723 49.3079C126.985 49.142 127.057 48.7896 126.891 48.5275C126.725 48.2654 126.373 48.1936 126.11 48.3595L122.424 50.7332C122.162 50.8991 122.09 51.2515 122.256 51.5136C122.328 51.6341 122.442 51.7124 122.555 51.749Z" fill="#9FC1C3" fill-opacity="0.46"/>
<path d="M96.8974 67.8283C96.9702 67.9488 97.0837 68.0271 97.1971 68.0637C97.3483 68.1124 97.5322 68.1018 97.6778 67.9963L117.228 55.4165C117.49 55.2506 117.562 54.8982 117.396 54.636C117.23 54.3739 116.878 54.3021 116.616 54.4681L97.0696 67.0348C96.8155 67.2179 96.7314 67.5664 96.8973 67.8285L96.8974 67.8283Z" fill="#9FC1C3" fill-opacity="0.46"/>
</svg>
