<svg width="394" height="449" viewBox="0 0 394 449" fill="none" xmlns="http://www.w3.org/2000/svg">
<path d="M101.5 221.5C44.8444 147.198 18.5978 101.712 0 1V449.5H384C417.155 424.511 355.438 324.646 268 302C252.293 297.932 148.152 264.396 101.5 221.5Z" stroke="#C2E1DD"/>
<path d="M90.5 221.5C33.8444 147.198 7.59781 101.712 -11 1V449.5H373C406.155 424.511 344.438 324.646 257 302C241.293 297.932 137.152 264.396 90.5 221.5Z" stroke="#C2E1DD"/>
<path d="M71.5 221.5C14.8444 147.198 -11.4022 101.712 -30 1V449.5H354C387.155 424.511 325.438 324.646 238 302C222.293 297.932 118.152 264.396 71.5 221.5Z" stroke="#C2E1DD"/>
<path d="M55.5 221.5C-1.15561 147.198 -27.4022 101.712 -46 1V449.5H338C371.155 424.511 309.438 324.646 222 302C206.293 297.932 102.152 264.396 55.5 221.5Z" stroke="#C2E1DD"/>
<path d="M43.5 221.5C-13.1556 147.198 -39.4022 101.712 -58 1V449.5H326C359.155 424.511 297.438 324.646 210 302C194.293 297.932 90.1519 264.396 43.5 221.5Z" stroke="#C2E1DD"/>
<path d="M15.5 221.5C-41.1556 147.198 -67.4022 101.712 -86 1V449.5H298C331.155 424.511 269.438 324.646 182 302C166.293 297.932 62.1519 264.396 15.5 221.5Z" stroke="#C2E1DD"/>
<path d="M-5.5 221.5C-62.1556 147.198 -88.4022 101.712 -107 1V449.5H277C310.155 424.511 248.438 324.646 161 302C145.293 297.932 41.1519 264.396 -5.5 221.5Z" stroke="#C2E1DD"/>
<path d="M-28.5 221.5C-85.1556 147.198 -111.402 101.712 -130 1V449.5H254C287.155 424.511 225.438 324.646 138 302C122.293 297.932 18.1519 264.396 -28.5 221.5Z" stroke="#C2E1DD"/>
<path d="M-53.5 221.5C-110.156 147.198 -136.402 101.712 -155 1V449.5H229C262.155 424.511 200.438 324.646 113 302C97.2934 297.932 -6.84811 264.396 -53.5 221.5Z" stroke="#C2E1DD"/>
<path d="M-73.5 221.5C-130.156 147.198 -156.402 101.712 -175 1V449.5H209C242.155 424.511 180.438 324.646 93 302C77.2934 297.932 -26.8481 264.396 -73.5 221.5Z" stroke="#C2E1DD"/>
<path d="M-95.5 223.5C-152.156 149.198 -178.402 103.712 -197 3V451.5H187C220.155 426.511 158.438 326.646 71 304C55.2934 299.932 -48.8481 266.396 -95.5 223.5Z" stroke="#C2E1DD"/>
<path d="M-118.5 223.5C-175.156 149.198 -201.402 103.712 -220 3V451.5H164C197.155 426.511 135.438 326.646 48 304C32.2934 299.932 -71.8481 266.396 -118.5 223.5Z" stroke="#C2E1DD"/>
<path d="M-140.5 223.5C-197.156 149.198 -223.402 103.712 -242 3V451.5H142C175.155 426.511 113.438 326.646 26 304C10.2934 299.932 -93.8481 266.396 -140.5 223.5Z" stroke="#C2E1DD"/>
<path d="M-153.5 223.5C-210.156 149.198 -236.402 103.712 -255 3V451.5H129C162.155 426.511 100.438 326.646 13 304C-2.7066 299.932 -106.848 266.396 -153.5 223.5Z" stroke="#C2E1DD"/>
<path d="M-173.5 223.5C-230.156 149.198 -256.402 103.712 -275 3V451.5H109C142.155 426.511 80.4378 326.646 -7 304C-22.7066 299.932 -126.848 266.396 -173.5 223.5Z" stroke="#C2E1DD"/>
<path d="M-189.5 223.5C-246.156 149.198 -272.402 103.712 -291 3V451.5H93C126.155 426.511 64.4378 326.646 -23 304C-38.7066 299.932 -142.848 266.396 -189.5 223.5Z" stroke="#C2E1DD"/>
<path d="M-202.5 223.5C-259.156 149.198 -285.402 103.712 -304 3V451.5H80C113.155 426.511 51.4378 326.646 -36 304C-51.7066 299.932 -155.848 266.396 -202.5 223.5Z" stroke="#C2E1DD"/>
<path d="M-211.5 223.5C-268.156 149.198 -294.402 103.712 -313 3V451.5H71C104.155 426.511 42.4378 326.646 -45 304C-60.7066 299.932 -164.848 266.396 -211.5 223.5Z" stroke="#C2E1DD"/>
<path d="M-225.5 221.5C-282.156 147.198 -308.402 101.712 -327 1V449.5H57C90.1547 424.511 28.4378 324.646 -59 302C-74.7066 297.932 -178.848 264.396 -225.5 221.5Z" stroke="#C2E1DD"/>
<path d="M-234.5 221.5C-291.156 147.198 -317.402 101.712 -336 1V449.5H48C81.1547 424.511 19.4378 324.646 -68 302C-83.7066 297.932 -187.848 264.396 -234.5 221.5Z" stroke="#C2E1DD"/>
<path d="M-243.5 221.5C-300.156 147.198 -326.402 101.712 -345 1V449.5H39C72.1547 424.511 10.4378 324.646 -77 302C-92.7066 297.932 -196.848 264.396 -243.5 221.5Z" stroke="#C2E1DD"/>
<path d="M-250.5 221.5C-307.156 147.198 -333.402 101.712 -352 1V449.5H32C65.1547 424.511 3.43777 324.646 -84 302C-99.7066 297.932 -203.848 264.396 -250.5 221.5Z" stroke="#C2E1DD"/>
<path d="M-259.5 221.5C-316.156 147.198 -342.402 101.712 -361 1V449.5H23C56.1547 424.511 -5.56223 324.646 -93 302C-108.707 297.932 -212.848 264.396 -259.5 221.5Z" stroke="#C2E1DD"/>
</svg>
