<svg width="78" height="58" viewBox="0 0 78 58" fill="none" xmlns="http://www.w3.org/2000/svg">
<path d="M38.5989 0L37.485 1.30772C31.2617 8.40933 28.2349 19.7731 28.6223 30.9977L28.6707 32.0632L27.2662 30.0774C21.5636 21.5107 12.9188 16.9034 2.03407 14.9661L0 14.5786L0.193721 16.6613C0.780938 22.3765 2.02197 27.0322 3.97128 31.5305L4.35873 32.4991H5.37576L26.0071 32.4507H28.6707V32.4991H73.2266L73.614 31.5789C75.6663 27.1169 76.992 22.2978 77.6822 16.7097L77.9243 14.6755L75.8903 15.0145C64.7937 16.6976 55.9794 21.5228 49.9316 30.029L48.624 31.8695L48.6724 31.0461C49.2173 19.5915 46.0996 8.19744 39.7613 1.25928L38.5989 0ZM38.6474 5.08556C43.1272 10.9884 45.6879 19.9729 45.5245 29.3994H31.7703C31.7279 20.1667 34.2402 11.1156 38.6474 5.08556ZM3.6807 18.5986C11.6959 20.3725 18.004 23.7387 22.6654 29.3509L6.48966 29.3994C5.14572 26.1059 4.25581 22.5823 3.6807 18.5986ZM74.1468 18.5986C73.499 22.552 72.5607 26.1361 71.1441 29.3994H54.6294C59.5571 23.7205 65.9923 20.2272 74.1468 18.5986ZM5.61791 36.4707C6.20513 37.7482 7.16768 39.3465 7.991 40.4907L69.449 40.4423C70.345 39.1891 71.2046 37.8995 71.8221 36.4707H5.61791ZM10.8484 44.5592C12.1197 46.2423 13.2336 46.9264 14.8197 48.1917H62.3782C63.7161 47.1504 65.1085 45.9214 66.3495 44.5592H10.8484ZM19.8564 51.5337C23.9185 54.0462 28.6828 55.6929 34.0949 56.813L33.4653 51.5337H19.8564ZM34.7729 51.5337C35.8202 53.7132 37.1702 55.5416 38.6958 57.2973C40.1971 55.5113 41.2202 53.6829 42.2796 51.5337H34.7729ZM43.8294 51.5337L43.0061 56.5224C48.4424 55.5234 53.2309 53.9433 57.3899 51.5337H43.8294Z" fill="#C5CAD9"/>
</svg>
