<svg width="134" height="56" viewBox="0 0 134 56" fill="none" xmlns="http://www.w3.org/2000/svg">
<path d="M2.8829 9.99774L3.14125 12.2925L8.37321 13.2976L16.4751 16.6185L25.0648 21.1628L31.0949 24.5401L36.8806 26.5692L47.9352 27.2423L44.341 32.0925L41.8432 39.5272H30.636L23.9965 45.0533L16.6876 49.5422L16.6258 51.6892L16.7615 53.2415L18.9091 52.9648L20.9659 51.5353L29.3901 45.7485L47.0497 46.3783L54.5431 40.3852L58.5052 38.5432L64.7747 31.9556L68.9763 30.3439L73.5629 30.6357L78.7989 32.5089L93.0125 32.0059L97.5173 28.874L98.4879 25.5712V30.8046L99.9493 32.9676L114.723 27.6466L116.459 26.9504L120.891 27.9193L125.55 29.7613L128.091 31.033L130.465 29.6537L129.095 27.0732L117.84 22.4645L109.177 23.2944L107.853 22.9252L111.871 16.8889L112.421 15.7843L114.521 14.3567L115.162 15.9211L117.902 16.0137L120.872 14.9322L121.511 15.569L122.972 15.8135L125.531 13.1364L126.139 11.6364L123.46 8.44325L123.339 6.84566L121.389 4.88086L116.396 3.89695L114.08 2.05591H112.741L112.498 3.40501L108.72 3.52775L105.189 5.74003L94.8036 6.86075L85.394 12.1133L76.6826 14.8307L71.1992 16.9192L62.5507 18.7643L53.4474 18.9645L44.5535 20.9776L37.2118 21.4666L31.6077 19.9917L19.0928 13.7291L11.6294 11.0218L6.30259 9.85988L2.8829 9.99774Z" fill="#C5CAD9" stroke="#C5CAD9" stroke-width="3.81621" stroke-miterlimit="10"/>
</svg>
