<svg width="82" height="58" viewBox="0 0 82 58" fill="none" xmlns="http://www.w3.org/2000/svg">
<path d="M28.9206 0C13.1107 0 0.255859 12.8435 0.255859 28.6486C0.255859 44.4538 13.1107 57.2973 28.9206 57.2973C33.2971 57.2973 37.4174 56.2428 41.1311 54.49C44.8439 56.2444 48.962 57.2973 53.3353 57.2973C69.1451 57.2973 82 44.4538 82 28.6486C82 12.8435 69.1451 0 53.3353 0C48.9609 0 44.8363 1.04719 41.1215 2.80411C37.4087 1.05012 33.2913 0 28.9206 0ZM28.9206 3.27413C33.0526 3.27413 36.9458 4.25621 40.3903 6.00151L41.1247 6.37241L41.9198 5.97593L41.923 5.97273C45.3534 4.24452 49.2247 3.27413 53.3353 3.27413C67.3816 3.27413 78.7302 14.6167 78.7302 28.6486C78.7302 42.6806 67.3816 54.0232 53.3353 54.0232C49.2033 54.0232 45.3118 53.0396 41.8687 51.2958L41.1311 50.9249L40.3935 51.2958C36.9481 53.0385 33.0557 54.0232 28.9206 54.0232C14.8742 54.0232 3.52562 42.6806 3.52562 28.6486C3.52562 14.6167 14.8742 3.27413 28.9206 3.27413ZM28.9206 6.54826C25.9672 6.54826 23.1445 7.12809 20.5642 8.18213C12.493 11.4786 6.81136 19.4133 6.81136 28.6486C6.81136 40.8375 16.732 50.749 28.9238 50.749C31.1077 50.749 33.2231 50.4302 35.2206 49.8378L37.9444 49.032L35.8784 47.0784C31.9314 43.3471 29.2856 38.3369 28.3714 32.7413H36.2233V36.0154H32.3117L33.4708 38.3751C35.0323 41.5554 37.3349 44.3045 40.154 46.3974L41.1279 47.12L42.1018 46.3974C44.9195 44.302 47.2203 41.5554 48.7819 38.3751L49.941 36.0154H46.1188V32.7413H53.8845C52.9703 38.337 50.3233 43.3486 46.3774 47.0816L44.3115 49.0352L47.0352 49.841C49.032 50.4314 51.1498 50.749 53.3353 50.749C65.527 50.749 75.4477 40.8375 75.4477 28.6486C75.4477 16.4598 65.527 6.54826 53.3353 6.54826C51.1498 6.54826 49.0326 6.86712 47.0352 7.45952L44.3147 8.26526L46.3774 10.2189C47.7343 11.5021 48.9511 12.931 49.9984 14.4842V14.4874C51.3854 16.5433 52.3714 18.859 53.1117 21.2819L49.5929 21.2882C48.1186 17.169 45.6143 13.5326 42.1785 10.9575C42.1616 10.945 42.1155 10.9093 42.1402 10.9287L41.1567 10.1549L40.154 10.8999C36.6827 13.4795 34.1485 17.1379 32.6629 21.2882L29.1441 21.2819C29.8836 18.8585 30.8721 16.5439 32.2606 14.4874V14.4842C33.308 12.931 34.5216 11.5021 35.8784 10.2189L37.9444 8.26526L35.2206 7.45952C33.222 6.86735 31.1061 6.54826 28.9206 6.54826ZM28.9206 9.82239C29.8595 9.82239 30.7185 10.0804 31.6188 10.2125C30.9266 11.0258 30.1488 11.7636 29.5496 12.6521C27.5522 15.6105 26.0945 18.9639 25.3155 22.5704L24.8877 24.5528L34.8949 24.5656L35.2366 23.3825C36.2638 19.8519 38.4234 16.871 41.1375 14.5258C43.8472 16.8697 45.9928 19.8555 47.0193 23.3825L47.3641 24.5656L57.3714 24.5528L56.9435 22.5704C56.1629 18.9662 54.7019 15.6105 52.7062 12.6521C52.1071 11.7636 51.3292 11.0258 50.6371 10.2125C51.5371 10.0804 52.3963 9.82239 53.3353 9.82239C63.7637 9.82239 72.1779 18.2329 72.1779 28.6486C72.1779 39.0644 63.7637 47.4749 53.3353 47.4749C52.4235 47.4749 51.5895 47.2222 50.7137 47.0976C54.4232 42.7241 56.9238 37.2905 57.4672 31.2513L57.63 29.4672H42.849V39.2896H44.3147C43.3985 40.6094 42.3447 41.7988 41.1279 42.8451C39.9112 41.7997 38.8547 40.6103 37.938 39.2896H39.493V29.4672H24.6258L24.7855 31.2513C25.3289 37.2907 27.828 42.7249 31.539 47.0976C30.6646 47.222 29.8335 47.4749 28.9238 47.4749C18.4953 47.4749 10.0811 39.0644 10.0811 28.6486C10.0811 20.757 14.925 14.0198 21.7967 11.2133C23.9935 10.3159 26.3938 9.82239 28.9206 9.82239Z" fill="#C5CAD9"/>
</svg>
