<svg width="15" height="15" viewBox="0 0 15 15" fill="none" xmlns="http://www.w3.org/2000/svg">
<path d="M4.37402 0C1.96232 0 0 1.96348 0 4.37578V10.6254C0 13.0374 1.96348 15 4.37578 15H10.6254C13.0374 15 15 13.0365 15 10.6242V4.37402C15 1.96232 13.0365 0 10.6242 0H4.37402ZM12 2.4C12.3312 2.4 12.6 2.6688 12.6 3C12.6 3.3312 12.3312 3.6 12 3.6C11.6688 3.6 11.4 3.3312 11.4 3C11.4 2.6688 11.6688 2.4 12 2.4ZM7.5 3.6C9.651 3.6 11.4 5.349 11.4 7.5C11.4 9.651 9.6507 11.4 7.5 11.4C5.349 11.4 3.6 9.6507 3.6 7.5C3.6 5.3493 5.349 3.6 7.5 3.6ZM7.5 4.8C6.0087 4.8 4.8 6.0087 4.8 7.5C4.8 8.9913 6.0087 10.2 7.5 10.2C8.9913 10.2 10.2 8.9913 10.2 7.5C10.2 6.0087 8.9913 4.8 7.5 4.8Z" fill="#7F8495"/>
</svg>
