<svg width="11" height="11" viewBox="0 0 11 11" fill="none" xmlns="http://www.w3.org/2000/svg">
<path d="M10.9413 8.67175C10.4305 7.60543 9.55945 6.90974 8.3149 6.59925C8.12796 6.55261 7.92932 6.59892 7.78015 6.72087L6.74658 7.56538C6.54477 7.73031 6.25952 7.75151 6.03773 7.6147C4.94444 6.94029 4.05976 6.05564 3.38531 4.96229C3.2485 4.7405 3.2697 4.45525 3.43463 4.25345L4.27915 3.21988C4.40109 3.07063 4.4474 2.87207 4.40077 2.68513C4.09025 1.44065 3.39456 0.569531 2.32825 0.0587257C2.15618 -0.0236542 1.95332 -0.0191056 1.78506 0.0707496C1.24886 0.357142 0.735889 0.681138 0.249894 1.0455C0.0637649 1.185 -0.0300733 1.41573 0.00859087 1.64508C0.357941 3.71425 1.47602 5.89021 3.29286 7.70715C5.1097 9.52398 7.28573 10.642 9.35496 10.9914C9.5843 11.0301 9.81496 10.9362 9.95453 10.7501C10.3189 10.2641 10.6429 9.75114 10.9293 9.21494C11.0191 9.0466 11.0237 8.84365 10.9412 8.67167L10.9413 8.67175Z" fill="#589195"/>
</svg>
