<svg width="14" height="9" viewBox="0 0 14 9" fill="none" xmlns="http://www.w3.org/2000/svg">
<path d="M0.947045 0.108594C1.12271 0.0375001 1.31033 0.000671429 1.49985 0H12.4998C12.6894 0.000669657 12.877 0.0374999 13.0526 0.108483L7.30893 4.62134C7.22087 4.69076 7.11206 4.72859 6.9999 4.72859C6.88785 4.72859 6.77892 4.69098 6.69087 4.62156L0.947045 0.108594ZM7.92676 5.40774C7.6627 5.616 7.33625 5.72916 6.99996 5.72928C6.66379 5.72928 6.33736 5.61611 6.07316 5.40797L0.189731 0.784823C0.0669627 1.00335 0.00167429 1.24945 0 1.49999V7.49999C0.000446429 7.89765 0.158594 8.27902 0.439857 8.56014C0.720994 8.84139 1.10237 8.99954 1.5 8.99999H12.5C12.8977 8.99955 13.279 8.8414 13.5601 8.56014C13.8414 8.279 13.9995 7.89762 14 7.49999V1.49999C13.9983 1.24933 13.933 1.00334 13.8103 0.784823L7.92676 5.40774Z" fill="#7F8495"/>
</svg>
