<svg width="19" height="17" viewBox="0 0 19 17" fill="none" xmlns="http://www.w3.org/2000/svg">
<path d="M19 2.01007C18.3016 2.35376 17.5507 2.58289 16.7585 2.69117C17.564 2.16011 18.1835 1.31307 18.4743 0.312283C17.7207 0.803065 16.886 1.16339 15.9976 1.35335C15.2883 0.51813 14.2765 0 13.1556 0C11.0023 0 9.25729 1.92174 9.25729 4.29102C9.25729 4.62622 9.29256 4.95291 9.3591 5.27C6.11985 5.08928 3.24691 3.37894 1.32485 0.783109C0.987147 1.41728 0.79717 2.16011 0.79717 2.94396C0.79717 4.43367 1.48388 5.74489 2.53092 6.51765C1.89178 6.49585 1.29024 6.2985 0.763567 5.98178C0.763567 5.99472 0.763567 6.01394 0.763567 6.03204C0.763567 8.1138 2.10771 9.84707 3.88937 10.2418C3.56364 10.3408 3.21962 10.3959 2.86496 10.3959C2.61309 10.3959 2.36789 10.3641 2.13033 10.3168C2.6264 12.0179 4.0657 13.2615 5.77083 13.2981C4.43667 14.447 2.75649 15.1352 0.929256 15.1352C0.613515 15.1352 0.305094 15.1152 0 15.0742C1.72576 16.2882 3.77558 17 5.97578 17C13.1453 17 17.0673 10.4602 17.0673 4.78698C17.0673 4.60109 17.062 4.41594 17.054 4.233C17.8195 3.63283 18.479 2.87522 19 2.01007Z" fill="#7F8495"/>
</svg>
