<svg width="1310" height="830" viewBox="0 0 1310 830" fill="none" xmlns="http://www.w3.org/2000/svg">
<circle cx="720.5" cy="204.5" r="204.5" fill="#DEECEC"/>
<circle cx="1133" cy="508" r="99" fill="#DEECEC"/>
<circle cx="1258" cy="81" r="52" fill="#DEECEC"/>
<path d="M366 647C366 622.968 361.267 599.172 352.07 576.969C342.873 554.766 329.394 534.593 312.401 517.599C295.407 500.606 275.234 487.127 253.031 477.93C230.828 468.733 207.032 464 183 464C158.968 464 135.172 468.733 112.969 477.93C90.7663 487.127 70.5926 500.606 53.5994 517.599C36.6063 534.593 23.1266 554.766 13.93 576.969C4.73343 599.172 -2.10094e-06 622.968 0 647L183 647H366Z" fill="#DEECEC"/>
</svg>
