<svg width="27" height="23" viewBox="0 0 27 23" fill="none" xmlns="http://www.w3.org/2000/svg">
<path d="M7.02445 17.0548L22.8931 17.0595C23.6899 17.0595 24.3836 16.4931 24.5426 15.7126L26.7084 5.06638C26.7806 4.7109 26.691 4.34661 26.4617 4.06639C26.2333 3.78595 25.8942 3.6251 25.532 3.6251H6.39813L6.24868 2.89586C5.97319 1.53928 4.76784 0.553711 3.38247 0.553711H1.20224C0.936435 0.553711 0.72052 0.769626 0.72052 1.03543C0.72052 1.30123 0.936435 1.51715 1.20224 1.51715H3.38247C4.31128 1.51715 5.11947 2.17801 5.3055 3.08744L7.95214 16.0911H7.02438C5.72759 16.0911 4.67254 17.1462 4.67254 18.4429C4.67254 19.7397 5.72759 20.7948 7.02438 20.7948H8.48203C8.70462 21.8111 9.60937 22.5752 10.6913 22.5752C11.7732 22.5752 12.6779 21.8111 12.9005 20.7948H19.7387C19.9613 21.8111 20.8661 22.5752 21.948 22.5752C23.0299 22.5752 23.9347 21.8111 24.1572 20.7948H25.6901C25.956 20.7948 26.1719 20.5789 26.1719 20.3131C26.1719 20.0473 25.956 19.8313 25.6901 19.8313H24.1583C23.9377 18.8131 23.0321 18.0471 21.9482 18.0471C20.8643 18.0471 19.9587 18.8131 19.7381 19.8313H12.9015C12.6809 18.8131 11.7742 18.0471 10.6914 18.0471C9.60838 18.0471 8.7028 18.8131 8.48127 19.8313L7.02405 19.8311C6.25803 19.8311 5.63565 19.2087 5.63565 18.4427C5.63565 17.6769 6.25908 17.0546 7.02405 17.0546L7.02445 17.0548ZM6.5937 4.58901H25.5333C25.7057 4.59675 25.7915 4.70665 25.7644 4.87417L23.5986 15.521C23.5311 15.8554 23.2345 16.0971 22.8943 16.0971L8.93602 16.0924L6.5937 4.58901ZM21.9487 19.012C22.6655 19.012 23.2494 19.5948 23.2494 20.3126C23.2494 21.0304 22.6666 21.6132 21.9487 21.6132C21.2309 21.6132 20.6481 21.0304 20.6481 20.3126C20.6481 19.5948 21.2319 19.012 21.9487 19.012ZM10.6919 19.012C11.4097 19.012 11.9925 19.5948 11.9925 20.3126C11.9925 21.0304 11.4097 21.6132 10.6919 21.6132C9.9751 21.6132 9.39125 21.0304 9.39125 20.3126C9.39125 19.5948 9.97405 19.012 10.6919 19.012Z" fill="#1B2858"/>
<path d="M12.4308 10.8245H20.2258C20.4916 10.8245 20.7075 10.6086 20.7075 10.3428C20.7075 10.077 20.4916 9.86108 20.2258 9.86108H12.4308C12.165 9.86108 11.949 10.077 11.949 10.3428C11.949 10.6086 12.1639 10.8245 12.4308 10.8245Z" fill="#1B2858"/>
</svg>
