<svg width="21" height="22" viewBox="0 0 21 22" fill="none" xmlns="http://www.w3.org/2000/svg">
<path d="M10.6179 10.142C11.8895 10.1423 13.1089 9.63719 14.008 8.73831C14.9074 7.8392 15.4125 6.61977 15.4128 5.34841C15.4128 4.07679 14.9077 2.85736 14.0085 1.95797C13.1097 1.05886 11.8902 0.553711 10.6186 0.553711C9.34699 0.553711 8.12756 1.05855 7.22845 1.9577C6.32934 2.85681 5.82419 4.07624 5.82419 5.34787C5.82551 6.61875 6.33116 7.83737 7.22974 8.73621C8.12831 9.63478 9.34692 10.1405 10.6178 10.142H10.6179ZM10.6179 1.74212C11.5745 1.74186 12.4919 2.12182 13.1683 2.79824C13.8447 3.47436 14.2246 4.39181 14.2249 5.34841C14.2249 6.30481 13.845 7.22219 13.1686 7.89859C12.4922 8.57498 11.5748 8.95491 10.6184 8.95491C9.66174 8.95465 8.74437 8.57469 8.06824 7.89832C7.39185 7.22193 7.01192 6.30454 7.01212 5.34787C7.01345 4.39201 7.39367 3.47566 8.06953 2.79952C8.74565 2.12366 9.66201 1.74341 10.6179 1.74212Z" fill="#1B2858"/>
<path d="M10.618 11.0544C8.04794 11.0574 5.58417 12.0795 3.76708 13.8968C1.94978 15.7139 0.927601 18.1779 0.924683 20.7478V21.3417H20.312V20.7478C20.3091 18.1777 19.2867 15.7137 17.4693 13.8968C15.652 12.0795 13.188 11.0574 10.6177 11.0544H10.618ZM2.13325 20.1542C2.3345 17.2624 3.99433 14.6725 6.53738 13.2815C9.08043 11.8908 12.1567 11.8908 14.6997 13.2815C17.2428 14.6725 18.9026 17.2624 19.1036 20.1542H2.13325Z" fill="#1B2858"/>
</svg>
