<svg width="23" height="23" viewBox="0 0 23 23" fill="none" xmlns="http://www.w3.org/2000/svg">
<path d="M21.8496 21.6028L15.8073 15.5683C17.2391 13.9668 18.0982 11.8791 18.0982 9.59108C18.0982 4.61475 14.0319 0.553711 9.04912 0.553711C4.06638 0.553711 0 4.61481 0 9.59108C0 14.5673 4.06638 18.6284 9.04912 18.6284C11.3401 18.6284 13.4305 17.7704 15.0055 16.3692L21.0764 22.4037C21.1909 22.518 21.3341 22.5752 21.4773 22.5752C21.6206 22.5752 21.7638 22.518 21.8497 22.4037C22.0788 22.1748 22.0788 21.8315 21.8497 21.6027L21.8496 21.6028ZM9.04907 17.4846C4.69628 17.4846 1.14541 13.9383 1.14541 9.59123C1.14541 5.24409 4.69638 1.69783 9.04907 1.69783C13.4019 1.69783 16.9527 5.24419 16.9527 9.59123C16.9529 13.9382 13.4019 17.4846 9.04907 17.4846Z" fill="#1B2858"/>
</svg>
