<svg width="100" height="40" viewBox="0 0 100 40" fill="none" xmlns="http://www.w3.org/2000/svg">
<rect x="0.5" y="3.5" width="22" height="23" fill="#84A6A8" stroke="#1B2858"/>
<rect x="3.5" y="6.5" width="22" height="23" fill="#B0B9D1" stroke="#1B2858"/>
<rect x="8.5" y="11.5" width="12" height="13" fill="#589195" stroke="#1B2858"/>
<path d="M50.13 13.09C50.13 12.01 49.88 11.16 49.38 10.54C48.9 9.92 48.22 9.61 47.34 9.61C47.3 9.61 47.28 9.55 47.28 9.43C47.28 9.31 47.3 9.25 47.34 9.25L48.78 9.28C49.54 9.32 50.15 9.34 50.61 9.34C50.99 9.34 51.54 9.32 52.26 9.28L53.64 9.25C53.68 9.25 53.7 9.31 53.7 9.43C53.7 9.55 53.68 9.61 53.64 9.61C52.86 9.61 52.25 9.92 51.81 10.54C51.37 11.16 51.15 12.01 51.15 13.09V21.43C51.15 22.83 50.84 24.06 50.22 25.12C49.6 26.18 48.72 27 47.58 27.58C46.46 28.14 45.16 28.42 43.68 28.42C42.2 28.42 40.89 28.14 39.75 27.58C38.61 27.02 37.71 26.21 37.05 25.15C36.41 24.07 36.09 22.81 36.09 21.37V11.68C36.09 11.08 36.03 10.64 35.91 10.36C35.81 10.08 35.61 9.89 35.31 9.79C35.03 9.67 34.58 9.61 33.96 9.61C33.9 9.61 33.87 9.55 33.87 9.43C33.87 9.31 33.9 9.25 33.96 9.25L35.55 9.28C36.47 9.32 37.2 9.34 37.74 9.34C38.34 9.34 39.1 9.32 40.02 9.28L41.55 9.25C41.61 9.25 41.64 9.31 41.64 9.43C41.64 9.55 41.61 9.61 41.55 9.61C40.93 9.61 40.47 9.67 40.17 9.79C39.89 9.91 39.69 10.12 39.57 10.42C39.47 10.7 39.42 11.14 39.42 11.74V20.32C39.42 22.7 39.89 24.46 40.83 25.6C41.77 26.74 43.1 27.31 44.82 27.31C46.48 27.31 47.78 26.81 48.72 25.81C49.66 24.79 50.13 23.34 50.13 21.46V13.09ZM55.1438 28C55.1037 28 55.0837 27.94 55.0837 27.82C55.0837 27.7 55.1037 27.64 55.1438 27.64C55.7637 27.64 56.1838 27.5 56.4038 27.22C56.6438 26.92 56.7638 26.37 56.7638 25.57L56.7938 10.33C56.7938 9.63 56.7238 9.13 56.5838 8.83C56.4638 8.53 56.2438 8.38 55.9238 8.38C55.6638 8.38 55.2838 8.49 54.7838 8.71H54.7538C54.6938 8.71 54.6338 8.66 54.5738 8.56C54.5338 8.44 54.5338 8.37 54.5738 8.35L58.9838 6.28L59.1038 6.25C59.2038 6.25 59.3138 6.3 59.4338 6.4C59.5538 6.48 59.6138 6.56 59.6138 6.64V25.57C59.6138 26.37 59.7238 26.92 59.9438 27.22C60.1638 27.5 60.5838 27.64 61.2038 27.64C61.2838 27.64 61.3238 27.7 61.3238 27.82C61.3238 27.94 61.2838 28 61.2038 28C60.7038 28 60.3038 27.99 60.0038 27.97L58.1738 27.94L56.3738 27.97C56.0738 27.99 55.6638 28 55.1438 28ZM63.2911 28C63.2311 28 63.2011 27.94 63.2011 27.82C63.2011 27.7 63.2311 27.64 63.2911 27.64C63.9111 27.64 64.3311 27.5 64.5511 27.22C64.7711 26.92 64.8811 26.37 64.8811 25.57V20.2C64.8811 19.52 64.8111 19.03 64.6711 18.73C64.5311 18.43 64.3011 18.28 63.9811 18.28C63.7211 18.28 63.3511 18.39 62.8711 18.61H62.8411C62.7611 18.61 62.7011 18.56 62.6611 18.46C62.6211 18.34 62.6311 18.27 62.6911 18.25L67.2211 16.15L67.3111 16.12C67.4111 16.12 67.5111 16.17 67.6111 16.27C67.7111 16.37 67.7611 16.46 67.7611 16.54V17.2C67.7211 18 67.7011 18.98 67.7011 20.14V25.57C67.7011 26.37 67.8111 26.92 68.0311 27.22C68.2711 27.5 68.7011 27.64 69.3211 27.64C69.3811 27.64 69.4111 27.7 69.4111 27.82C69.4111 27.94 69.3811 28 69.3211 28C68.8011 28 68.3911 27.99 68.0911 27.97L66.2911 27.94L64.5211 27.97C64.2211 27.99 63.8111 28 63.2911 28ZM66.1711 13.15C65.5911 13.15 65.1411 12.99 64.8211 12.67C64.5011 12.35 64.3411 11.9 64.3411 11.32C64.3411 10.8 64.5011 10.39 64.8211 10.09C65.1611 9.77 65.6111 9.61 66.1711 9.61C66.7311 9.61 67.1611 9.76 67.4611 10.06C67.7611 10.36 67.9111 10.78 67.9111 11.32C67.9111 11.9 67.7611 12.35 67.4611 12.67C67.1611 12.99 66.7311 13.15 66.1711 13.15ZM85.272 27.64C85.332 27.64 85.362 27.7 85.362 27.82C85.362 27.94 85.332 28 85.272 28C84.752 28 84.342 27.99 84.042 27.97L82.242 27.94L80.502 27.97C80.182 27.99 79.762 28 79.242 28C79.182 28 79.152 27.94 79.152 27.82C79.152 27.7 79.182 27.64 79.242 27.64C79.862 27.64 80.282 27.5 80.502 27.22C80.722 26.92 80.832 26.37 80.832 25.57V21.25C80.832 20.17 80.632 19.37 80.232 18.85C79.852 18.33 79.242 18.07 78.402 18.07C77.922 18.07 77.422 18.17 76.902 18.37C76.402 18.57 75.962 18.84 75.582 19.18V25.57C75.582 26.37 75.692 26.92 75.912 27.22C76.152 27.5 76.582 27.64 77.202 27.64C77.262 27.64 77.292 27.7 77.292 27.82C77.292 27.94 77.262 28 77.202 28C76.682 28 76.272 27.99 75.972 27.97L74.172 27.94L72.402 27.97C72.102 27.99 71.692 28 71.172 28C71.112 28 71.082 27.94 71.082 27.82C71.082 27.7 71.112 27.64 71.172 27.64C71.792 27.64 72.212 27.5 72.432 27.22C72.652 26.92 72.762 26.37 72.762 25.57V19.93C72.762 19.31 72.682 18.86 72.522 18.58C72.382 18.28 72.152 18.13 71.832 18.13C71.492 18.13 71.012 18.27 70.392 18.55H70.332C70.272 18.55 70.222 18.5 70.182 18.4C70.162 18.3 70.172 18.24 70.212 18.22L74.382 16.18C74.502 16.14 74.572 16.12 74.592 16.12C74.812 16.12 75.022 16.34 75.222 16.78C75.422 17.2 75.542 17.78 75.582 18.52C76.962 16.88 78.482 16.06 80.142 16.06C81.222 16.06 82.072 16.41 82.692 17.11C83.332 17.79 83.652 18.69 83.652 19.81V25.57C83.652 26.37 83.762 26.92 83.982 27.22C84.222 27.5 84.652 27.64 85.272 27.64ZM98.363 26.38C98.443 26.38 98.493 26.43 98.513 26.53C98.553 26.61 98.533 26.67 98.453 26.71L95.363 28.18C95.283 28.22 95.183 28.24 95.063 28.24C94.763 28.24 94.463 28.09 94.163 27.79C93.883 27.49 93.683 27.08 93.563 26.56L92.183 27.31C91.663 27.57 91.123 27.79 90.563 27.97C90.003 28.13 89.503 28.21 89.063 28.21C88.423 28.21 87.913 28.05 87.533 27.73C87.173 27.39 86.993 26.91 86.993 26.29C86.993 25.83 87.103 25.46 87.323 25.18C87.563 24.9 87.893 24.67 88.313 24.49C88.753 24.29 89.443 24.03 90.383 23.71L93.443 22.72V20.35C93.443 19.15 93.323 18.27 93.083 17.71C92.843 17.13 92.453 16.84 91.913 16.84C91.433 16.84 91.053 17.02 90.773 17.38C90.493 17.74 90.323 18.33 90.263 19.15C90.143 20.27 89.553 20.83 88.493 20.83C87.553 20.83 87.083 20.42 87.083 19.6C87.083 19.06 87.423 18.52 88.103 17.98C88.783 17.44 89.603 17 90.563 16.66C91.523 16.32 92.363 16.15 93.083 16.15C94.023 16.15 94.783 16.43 95.363 16.99C95.963 17.55 96.263 18.37 96.263 19.45V24.76C96.263 25.34 96.363 25.79 96.563 26.11C96.783 26.43 97.083 26.59 97.463 26.59C97.743 26.59 98.033 26.52 98.333 26.38H98.363ZM93.473 26.08C93.453 25.94 93.443 25.73 93.443 25.45V23.23L91.793 23.83C91.253 24.03 90.863 24.25 90.623 24.49C90.403 24.73 90.293 25.02 90.293 25.36C90.293 25.78 90.413 26.11 90.653 26.35C90.893 26.59 91.193 26.71 91.553 26.71C91.993 26.71 92.503 26.57 93.083 26.29L93.473 26.08Z" fill="#589195"/>
</svg>
