<svg width="46" height="35" viewBox="0 0 46 35" fill="none" xmlns="http://www.w3.org/2000/svg">
<path d="M45.0415 17.6751C44.5123 17.6751 44.0831 18.1042 44.0831 18.6334V29.5391C44.0823 30.3014 43.779 31.0322 43.2403 31.5713C42.7013 32.1099 41.9705 32.4132 41.2081 32.4141H4.79164C4.02926 32.4132 3.29851 32.1099 2.75944 31.5713C2.2208 31.0322 1.91748 30.3014 1.91663 29.5391V17.0808H29.6129C30.1421 17.0808 30.5712 16.6517 30.5712 16.1225C30.5712 15.5932 30.1421 15.1641 29.6129 15.1641H1.91663V13.2475H28.0697C28.5989 13.2475 29.028 12.8184 29.028 12.2891C29.028 11.7599 28.5989 11.3308 28.0697 11.3308H1.91663V10.3725C1.91748 9.61011 2.2208 8.87936 2.75944 8.34028C3.2985 7.80165 4.02925 7.49832 4.79164 7.49747H27.7915C28.3207 7.49747 28.7499 7.06836 28.7499 6.53914C28.7499 6.00992 28.3207 5.58081 27.7915 5.58081H4.79164C3.52139 5.58209 2.30338 6.08778 1.40496 6.98578C0.506962 7.88421 0.00131428 9.1022 0 10.3725V29.539C0.0012835 30.8093 0.506972 32.0273 1.40496 32.9257C2.30339 33.8237 3.52139 34.3294 4.79164 34.3307H41.2081C42.4784 34.3294 43.6964 33.8237 44.5948 32.9257C45.4928 32.0273 45.9984 30.8093 45.9998 29.539V18.6334C45.9998 18.3792 45.8988 18.1354 45.7191 17.9557C45.5394 17.776 45.2956 17.675 45.0414 17.675L45.0415 17.6751Z" fill="#589195"/>
<path d="M8.62495 22.8303H4.79164C4.26243 22.8303 3.83331 23.2594 3.83331 23.7887C3.83331 24.3179 4.26243 24.747 4.79164 24.747H8.62495C9.15417 24.747 9.58328 24.3179 9.58328 23.7887C9.58328 23.2594 9.15417 22.8303 8.62495 22.8303Z" fill="#589195"/>
<path d="M8.62495 27.6221H4.79164C4.26243 27.6221 3.83331 28.0512 3.83331 28.5804C3.83331 29.1096 4.26243 29.5387 4.79164 29.5387H8.62495C9.15417 29.5387 9.58328 29.1096 9.58328 28.5804C9.58328 28.0512 9.15417 27.6221 8.62495 27.6221Z" fill="#589195"/>
<path d="M12.4585 27.6221C11.9292 27.6221 11.5001 28.0512 11.5001 28.5804C11.5001 29.1096 11.9292 29.5387 12.4585 29.5387H16.2918C16.821 29.5387 17.2501 29.1096 17.2501 28.5804C17.2501 28.0512 16.821 27.6221 16.2918 27.6221H12.4585Z" fill="#589195"/>
<path d="M29.7835 27.4403C30.0334 28.6489 30.8497 29.6633 31.9769 30.1665C33.1038 30.6696 34.4044 30.5994 35.4709 29.9782C35.7589 29.8096 36.1161 29.8101 36.404 29.9791C36.9867 30.3201 37.6499 30.4993 38.3254 30.4976C38.5675 30.4976 38.8093 30.4758 39.0476 30.4321C39.7958 30.2944 40.4851 29.9359 41.0275 29.4024C41.5696 28.8693 41.9397 28.1857 42.0902 27.4404V27.4395C42.2905 26.4619 42.1022 25.4446 41.5653 24.6034C41.0284 23.7619 40.1848 23.163 39.2135 22.9336C38.2419 22.7039 37.2194 22.8617 36.3625 23.3734C36.1003 23.5287 35.7743 23.5287 35.512 23.3734C34.6551 22.8605 33.6317 22.7022 32.6597 22.9315C31.6881 23.1608 30.8436 23.7602 30.3067 24.6021C29.7698 25.4441 29.5819 26.4623 29.7835 27.4403L29.7835 27.4403ZM32.0586 25.4462V25.4458C32.356 25.0993 32.7646 24.8665 33.2147 24.7882C33.6643 24.7099 34.1276 24.7904 34.5247 25.0163C34.9512 25.2725 35.4398 25.4081 35.9373 25.4081C36.4349 25.4081 36.9234 25.2725 37.3499 25.0163C37.7469 24.7908 38.2099 24.7104 38.6595 24.7891C39.1091 24.8674 39.5177 25.0997 39.8151 25.4458C40.1988 25.9126 40.3404 26.5333 40.1967 27.1203C40.0529 27.7077 39.641 28.1924 39.0848 28.4294C38.5286 28.666 37.8933 28.6271 37.3706 28.3238C36.9355 28.0701 36.4409 27.9362 35.9373 27.9362C35.4338 27.9362 34.9392 28.0692 34.5041 28.3225C33.9813 28.6262 33.3465 28.666 32.7899 28.4294C32.2337 28.1928 31.8217 27.7081 31.6775 27.1207C31.5338 26.5338 31.675 25.9135 32.0587 25.4462L32.0586 25.4462Z" fill="#589195"/>
<path d="M44.2575 2.2849L39.4667 0.231774V0.231346C38.7432 -0.0771153 37.9248 -0.0771153 37.2009 0.231346L32.4084 2.28447V2.2849C31.8911 2.50608 31.4505 2.87487 31.1412 3.34419C30.8314 3.81395 30.6663 4.36413 30.6667 4.9267V9.69227C30.6731 11.751 31.347 13.7523 32.5868 15.396C33.8266 17.0398 35.5657 18.2372 37.5436 18.8096C38.06 18.9568 38.6067 18.9568 39.1231 18.8096C41.101 18.2372 42.8401 17.0398 44.0799 15.396C45.3197 13.7523 45.9936 11.751 46 9.69227V4.9267C46.0004 4.36411 45.8353 3.81394 45.5255 3.34419C45.2158 2.87444 44.7747 2.50609 44.2575 2.2849ZM44.0833 9.69228C44.0782 11.3347 43.5409 12.9313 42.5518 14.2426C41.5627 15.554 40.1752 16.5097 38.5974 16.9657C38.425 17.0162 38.2419 17.0162 38.0695 16.9657C36.4917 16.5097 35.1043 15.5539 34.1152 14.2426C33.1261 12.9314 32.5886 11.3347 32.5836 9.69228V4.92671C32.5836 4.5438 32.8116 4.19726 33.1637 4.04624L37.9562 1.99312V1.99269C38.198 1.89044 38.4705 1.89044 38.7118 1.99269L43.5025 4.04581V4.04624C43.8546 4.19683 44.0835 4.54338 44.0835 4.92671L44.0833 9.69228Z" fill="#589195"/>
</svg>
