<svg width="69" height="32" viewBox="0 0 69 32" fill="none" xmlns="http://www.w3.org/2000/svg">
<path fill-rule="evenodd" clip-rule="evenodd" d="M17.8993 0.000261256C17.3044 0.00268446 16.8236 0.490722 16.826 1.08974V3.98305C16.8245 4.27093 16.9372 4.54767 17.1384 4.7517C17.34 4.95622 17.6134 5.07157 17.8993 5.07254C18.1866 5.07399 18.4624 4.95961 18.6655 4.75461C18.8686 4.55009 18.9822 4.27238 18.9813 3.98304V2.171H48.5315V24.8187H32.9167C32.4286 22.2433 30.208 20.2678 27.5425 20.2678C24.877 20.2678 22.6635 22.2433 22.1769 24.8187H17.8996C17.3076 24.8211 16.8282 25.3039 16.8263 25.9C16.8248 26.1878 16.9375 26.4641 17.1387 26.6686C17.3403 26.8726 17.6137 26.988 17.8996 26.9894H22.1832C22.6847 29.5455 24.8906 31.5 27.5425 31.5C30.1944 31.5 32.407 29.5454 32.9104 26.9894H53.402C53.9049 29.5455 56.118 31.5 58.7694 31.5C61.4213 31.5 63.632 29.5454 64.1349 26.9894H67.9262C68.5216 26.987 69.0024 26.499 69 25.9V15.2528C69.0005 15.0526 68.9456 14.8559 68.8421 14.6848L63.0175 5.25695C62.8216 4.93854 62.476 4.74468 62.104 4.74371H50.6865V1.08948C50.689 0.490461 50.2081 0.00241936 49.6132 0L17.8993 0.000261256ZM50.6863 6.9143H61.4973L66.8441 15.5667V24.8191H64.1435C63.656 22.2436 61.4353 20.2682 58.7698 20.2682C56.1044 20.2682 53.8837 22.2436 53.3956 24.8191H50.6864L50.6863 6.9143ZM14.7894 7.90056C14.504 7.8991 14.2292 8.01251 14.026 8.2151C13.8234 8.41817 13.7089 8.69345 13.7074 8.98133C13.7089 9.26921 13.8234 9.54498 14.026 9.74756C14.2292 9.95014 14.504 10.0636 14.7894 10.0626H25.5291C25.815 10.0636 26.0899 9.95015 26.2925 9.74756C26.4956 9.54498 26.6101 9.26921 26.6111 8.98133C26.6101 8.69345 26.4956 8.41817 26.2925 8.2151C26.0899 8.01252 25.815 7.89911 25.5291 7.90056H14.7894ZM7.93135 13.9073C7.3379 13.9087 6.85708 14.3929 6.85611 14.9905C6.85467 15.2788 6.96778 15.5556 7.16945 15.7601C7.37111 15.9641 7.64545 16.0795 7.93135 16.08H22.1009C22.3882 16.0809 22.664 15.9665 22.8671 15.762C23.0702 15.5575 23.1838 15.2798 23.1828 14.9905C23.1823 14.7021 23.0678 14.4263 22.8647 14.2228C22.6621 14.0197 22.3868 13.9063 22.1009 13.9073L7.93135 13.9073ZM1.0738 19.9165C0.787904 19.9174 0.514039 20.0333 0.312857 20.2373C0.111194 20.4418 -0.000954936 20.7181 6.12622e-06 21.006C0.0024126 21.6021 0.481794 22.0848 1.07378 22.0872H18.6711C18.957 22.0882 19.2318 21.9748 19.4344 21.7722C19.6375 21.5696 19.7521 21.2938 19.753 21.0059C19.7545 20.7166 19.6404 20.4389 19.4373 20.2344C19.2342 20.0299 18.9584 19.9155 18.6711 19.9165L1.0738 19.9165ZM27.4574 22.4327C27.4858 22.4318 27.5133 22.4327 27.5416 22.4327C29.3711 22.4327 30.8593 23.9551 30.8593 25.8854C30.8593 27.8156 29.3716 29.3298 27.5416 29.3298C25.7122 29.3298 24.2328 27.8158 24.2328 25.8854C24.2328 23.9851 25.6676 22.4793 27.4575 22.4327H27.4574ZM58.6833 22.4327C58.7117 22.4318 58.7411 22.4327 58.7695 22.4327C60.5989 22.4327 62.0871 23.9551 62.0871 25.8854C62.0871 27.8156 60.5994 29.3298 58.7695 29.3298C56.94 29.3298 55.4518 27.8158 55.4518 25.8854C55.4518 23.9851 56.8928 22.4793 58.6829 22.4327H58.6833Z" fill="#589195"/>
</svg>
