<svg width="43" height="55" viewBox="0 0 43 55" fill="none" xmlns="http://www.w3.org/2000/svg">
<path d="M14.3156 34.2857L8.62341 31.6923C8.33024 31.5596 7.99243 31.5841 7.72117 31.7576C7.45118 31.9311 7.28817 32.2298 7.28817 32.5507V37.7388C7.28817 38.1086 7.50383 38.4443 7.8408 38.5976L13.533 41.1906C13.6573 41.2475 13.7908 41.2753 13.9239 41.2753C14.1025 41.2753 14.2794 41.2247 14.4344 41.1249C14.7044 40.9514 14.8674 40.6527 14.8674 40.3318V35.1442C14.8674 34.7752 14.6518 34.439 14.3156 34.2857V34.2857ZM12.9804 38.8656L9.17518 37.1319V34.0179L12.9804 35.7516V38.8656Z" fill="#589195"/>
<path d="M35.4772 31.7581C35.2064 31.5833 34.8681 31.5593 34.575 31.6928L28.8827 34.2862C28.5466 34.4396 28.3309 34.7757 28.3309 35.1451V40.3327C28.3309 40.6536 28.494 40.9523 28.7639 41.1258C28.919 41.2252 29.0959 41.2762 29.2745 41.2762C29.4071 41.2762 29.5407 41.248 29.6653 41.1915L35.3576 38.5985C35.695 38.4452 35.9102 38.1099 35.9102 37.7397V32.5512C35.9102 32.2303 35.7472 31.9316 35.4772 31.7581V31.7581ZM34.0232 37.1319L30.218 38.8656V35.7516L34.0232 34.0179V37.1319Z" fill="#589195"/>
<path d="M42.2911 20.491C42.2797 20.4606 42.2658 20.4337 42.2515 20.4046C42.2145 20.3301 42.169 20.2627 42.1138 20.1999C42.0948 20.1789 42.0797 20.1561 42.059 20.1367C41.9845 20.0664 41.9015 20.0041 41.8046 19.9603L41.7814 19.9497H41.781L31.9786 15.4849V9.90687C31.9786 4.44421 27.5349 0 22.0718 0C16.6087 0 12.1649 4.44421 12.1649 9.90687V14.1527H9.33436C8.93926 14.1527 8.58629 14.3987 8.44982 14.7685C8.31251 15.1387 8.42033 15.5553 8.72065 15.8122L9.33857 16.3417L1.39582 19.9599C1.29894 20.0037 1.21596 20.0661 1.14141 20.1364C1.12077 20.1558 1.10518 20.1785 1.08623 20.2C1.03105 20.2624 0.985138 20.3302 0.948497 20.4047C0.934176 20.4334 0.920276 20.4603 0.908904 20.4907C0.870152 20.5951 0.842773 20.7038 0.842773 20.8192V44.2841C0.842773 44.6539 1.05843 44.9896 1.3954 45.1429L21.2092 54.1682C21.223 54.1745 21.2382 54.172 21.2521 54.1774C21.3633 54.2221 21.4791 54.2533 21.6005 54.2533C21.603 54.2533 21.6055 54.2516 21.6085 54.2516C21.7243 54.2503 21.8368 54.2213 21.9454 54.1779C21.9602 54.172 21.9758 54.1745 21.9905 54.1682L41.8042 45.1429C42.1416 44.9892 42.3573 44.6539 42.3573 44.2836V20.8199C42.3573 20.7044 42.3299 20.5958 42.2912 20.4917L42.2911 20.491ZM13.108 16.0396C13.6295 16.0396 14.0515 15.6172 14.0515 15.0961V9.90682C14.0515 5.4845 17.6495 1.88697 22.0714 1.88697C26.4933 1.88697 30.0912 5.4845 30.0912 9.90682V18.8702H26.3172V9.90682C26.3172 7.56572 24.4125 5.66102 22.0714 5.66102C19.7303 5.66102 17.8256 7.56572 17.8256 9.90682V15.0961C17.8256 15.6172 18.2476 16.0396 18.7691 16.0396H19.9927L15.9386 19.5147L12.1009 16.225C12.0904 16.1934 12.0929 16.161 12.079 16.1302C12.063 16.0948 12.0331 16.0721 12.0133 16.0397L13.108 16.0396ZM10.9178 17.6958L15.3249 21.4732C15.501 21.6253 15.7204 21.7006 15.9386 21.7006C16.1568 21.7006 16.3762 21.6253 16.5523 21.4736L23.1569 15.8125C23.4572 15.5556 23.565 15.139 23.4277 14.7688C23.2913 14.3985 22.9383 14.1526 22.5432 14.1526H19.7126V9.90675C19.7126 8.60611 20.7703 7.54797 22.0714 7.54797C23.3725 7.54797 24.4302 8.60605 24.4302 9.90675V19.8136C24.4302 20.3347 24.8523 20.7571 25.3737 20.7571H31.0348C31.5562 20.7571 31.9783 20.3347 31.9783 19.8136V17.558L39.1377 20.819L21.6002 28.8069L4.06275 20.8186L10.9178 17.6958ZM2.72939 43.6763V22.285L20.6561 30.4503V51.8416L2.72939 43.6763ZM22.5431 51.842V30.4507L40.4699 22.2855V43.6768L22.5431 51.842Z" fill="#589195"/>
</svg>
